<svg xmlns="http://www.w3.org/2000/svg" width="207" height="70" viewBox="0 0 207 70"><path d="M2 45 L34 43 L11 17 Q34 22 51 35 L46 3 Q59 14 71 34 L108 48 L104 31 L134 51 L149 48 L172 61 L199 62 L205 69 L141 68 L103 60 L54 56Z" fill="#d6f4ff"/><path d="M11 17 L51 35 L68 42 L39 34Z M46 3 L71 34 L87 43 L64 32Z M54 56 L103 60 L124 66 L65 61Z M134 51 L172 61 L151 62Z" fill="#59bce8"/><path d="M18 51 L61 53 L72 57 L27 56Z M150 66 L187 65 L197 69Z" fill="#238fc5"/><g><path d="M0 -8 L1.9 -2.6 L7.6 -2.5 L3.1 1 L4.7 6.5 L0 3.2 L-4.7 6.5 L-3.1 1 L-7.6 -2.5 L-1.9 -2.6Z" transform="translate(46 17)" fill="#ffd23f"/><g fill="none" stroke="#ffd23f" stroke-width="2.2" stroke-linecap="round"><path d="M46 2 L46 6 M36 7 L40 11 M56 7 L52 11 M32 19 L37 18.4 M60 19 L55 18.4"/></g><path d="M0 -5.5 L1.3 -1.8 L5.2 -1.7 L2.1 0.7 L3.2 4.5 L0 2.2 L-3.2 4.5 L-2.1 0.7 L-5.2 -1.7 L-1.3 -1.8Z" transform="translate(152 11)" fill="#ffd23f"/><g fill="none" stroke="#ffd23f" stroke-width="1.8" stroke-linecap="round"><path d="M152 1 L152 4 M143 5 L146 8 M161 5 L158 8"/></g><circle cx="104" cy="12" r="2.2" fill="#ef4444"/><circle cx="180" cy="24" r="2" fill="#ef4444"/></g></svg>