<svg xmlns="http://www.w3.org/2000/svg" width="120" height="120" viewBox="0 0 120 120"><path d="M14 88 A52 52 0 0 1 92 30" fill="none" stroke="#70c4e9" stroke-width="3" stroke-linecap="round"/><path d="M28 100 A70 70 0 0 1 104 44" fill="none" stroke="#70c4e9" stroke-width="2.2" stroke-linecap="round" opacity="0.65"/><path d="M40 108 A86 86 0 0 1 112 58" fill="none" stroke="#70c4e9" stroke-width="1.6" stroke-linecap="round" opacity="0.4"/><path d="M92 18 L94.8 26.8 L104 29.6 L94.8 32.4 L92 41 L89.2 32.4 L80 29.6 L89.2 26.8 Z" fill="#dff5ff" stroke="#244258" stroke-width="1.8" stroke-linejoin="round"/><path d="M52 52 L54 58 L60 60 L54 62 L52 68 L50 62 L44 60 L50 58 Z" fill="#dff5ff" stroke="#244258" stroke-width="1.5" stroke-linejoin="round"/><path d="M88 78 L92 84 L84 84 Z" fill="#e85887"/><circle cx="30" cy="70" r="2.4" fill="#ffd23f"/></svg>
