<svg xmlns="http://www.w3.org/2000/svg" width="240" height="64" viewBox="0 0 240 64"><g stroke="#14532d" stroke-width="2" stroke-linejoin="round"><path d="M52 8 L86 48 L18 48Z" fill="#3fae7c"/><path d="M52 8 L52 48 L18 48Z" fill="#57c793"/><path d="M52 8 L86 48 L52 48Z" fill="#2e8f66"/></g><path d="M30 38 L74 38.8 M38 26 L66 27" stroke="#f4d58d" stroke-width="2.4" stroke-linecap="round" fill="none"/><circle cx="52" cy="15" r="2.6" fill="#f4d58d"/><path d="M120 12 L108 50" stroke="#14532d" stroke-width="3" stroke-linecap="round"/><path d="M108 50 Q94 54 90 44 Q100 40 110 44Z" fill="#57c793" stroke="#14532d" stroke-width="2" stroke-linejoin="round"/><path d="M134 12 L146 50" stroke="#14532d" stroke-width="3" stroke-linecap="round"/><path d="M146 50 Q160 54 164 44 Q154 40 144 44Z" fill="#3fae7c" stroke="#14532d" stroke-width="2" stroke-linejoin="round"/><g stroke="#14532d" stroke-width="1.6" stroke-linejoin="round"><path d="M186 40 A9 9 0 0 1 204 40 L204 45 L186 45Z" fill="#8fd0c4"/><path d="M204 40 A9 9 0 0 1 222 40 L222 45 L204 45Z" fill="#5bb3a6"/><path d="M195 50 A9 9 0 0 1 213 50 L213 55 L195 55Z" fill="#8fd0c4"/></g></svg>
