<svg xmlns="http://www.w3.org/2000/svg" width="200" height="80" viewBox="0 0 200 80"><g stroke="#5c1a1a" stroke-width="2" stroke-linejoin="round"><rect x="34" y="18" width="52" height="54" rx="5" fill="#f0524a" transform="rotate(-5 60 45)"/><path d="M37 20 L83 13.6 L86 32 L40 38Z" fill="#d62f2f" transform="rotate(-5 60 45)"/></g><circle cx="61" cy="48" r="9" fill="#ffd23f" stroke="#5c1a1a" stroke-width="1.6"/><path d="M57.5 44 L64.5 52 M64.5 44 L57.5 52" stroke="#5c1a1a" stroke-width="1.5" stroke-linecap="round"/><path d="M110 52 Q132 30 158 48 Q138 66 110 52Z" fill="#f2994a" stroke="#7a4a12" stroke-width="2" stroke-linejoin="round"/><path d="M110 52 Q132 37 158 48" fill="none" stroke="#ffd23f" stroke-width="2"/><circle cx="124" cy="47" r="2.2" fill="#7a4a12"/><path d="M156 46 L170 39 L167 54Z" fill="#f2994a" stroke="#7a4a12" stroke-width="1.8" stroke-linejoin="round"/><path d="M96 20 Q102 14 108 18 Q114 12 120 16" fill="none" stroke="#c9891b" stroke-width="2" stroke-linecap="round"/><circle cx="180" cy="24" r="2.4" fill="#ffd23f"/></svg>
